<?xml version="1.0" standalone="no"?>
<!DOCTYPE svg PUBLIC "-//W3C//DTD SVG 20010904//EN"
 "http://www.w3.org/TR/2001/REC-SVG-20010904/DTD/svg10.dtd">
<svg version="1.0" xmlns="http://www.w3.org/2000/svg"
 width="509.000000pt" height="490.000000pt" viewBox="0 0 509.000000 490.000000"
 preserveAspectRatio="xMidYMid meet">

<g transform="translate(0.000000,490.000000) scale(0.100000,-0.100000)"
fill="#000000" stroke="none">
<path d="M2423 4840 c-64 -37 -81 -64 -174 -286 -39 -93 -102 -241 -139 -329
-37 -88 -95 -225 -129 -305 -33 -80 -103 -244 -154 -365 l-94 -220 -314 -27
c-173 -15 -519 -45 -769 -68 -428 -39 -458 -43 -510 -68 -79 -39 -113 -91
-118 -182 -6 -109 11 -135 202 -303 253 -223 748 -660 887 -784 l126 -112 -27
-118 c-16 -65 -58 -244 -94 -398 -36 -154 -100 -426 -142 -605 -86 -367 -95
-429 -70 -495 46 -118 195 -172 315 -112 43 22 448 260 666 392 39 24 204 122
367 219 l297 177 438 -268 c779 -475 893 -542 929 -549 90 -17 188 28 238 109
44 72 40 121 -38 457 -59 255 -112 484 -234 1023 l-39 168 156 138 c86 75 228
200 316 277 686 600 704 616 725 660 55 112 1 264 -109 307 -36 15 -583 72
-1329 139 -139 12 -256 25 -261 28 -4 3 -67 147 -141 320 -206 486 -297 701
-367 869 -85 203 -117 264 -150 291 -76 60 -177 68 -260 20z m200 -80 c35 -30
36 -33 244 -525 66 -156 169 -398 251 -590 32 -77 81 -191 107 -253 26 -62 55
-116 64 -121 9 -5 70 -14 136 -20 711 -67 1455 -146 1480 -157 17 -8 39 -26
49 -41 26 -36 32 -111 12 -150 -13 -27 -255 -243 -1043 -932 -92 -81 -156
-144 -160 -159 -5 -23 13 -108 153 -707 218 -931 202 -852 178 -900 -37 -76
-124 -106 -197 -69 -26 14 -457 272 -1232 739 l-120 72 -6 289 c-3 159 -7
1024 -8 1922 l-1 1632 30 0 c18 0 42 -11 63 -30z"/>
</g>
</svg>
