<?xml version="1.0" standalone="no"?>
<!DOCTYPE svg PUBLIC "-//W3C//DTD SVG 20010904//EN"
 "http://www.w3.org/TR/2001/REC-SVG-20010904/DTD/svg10.dtd">
<svg version="1.0" xmlns="http://www.w3.org/2000/svg"
 width="509.000000pt" height="490.000000pt" viewBox="0 0 509.000000 490.000000"
 preserveAspectRatio="xMidYMid meet">

<g transform="translate(0.000000,490.000000) scale(0.100000,-0.100000)"
fill="#000000" stroke="none">
<path d="M2441 4837 c-77 -38 -69 -24 -408 -827 -36 -85 -98 -231 -138 -325
-39 -93 -89 -212 -111 -263 -28 -67 -44 -94 -59 -97 -11 -2 -110 -11 -220 -20
-175 -14 -1064 -94 -1230 -111 -85 -8 -129 -23 -169 -55 -75 -63 -100 -183
-56 -274 17 -35 126 -136 563 -521 298 -262 563 -497 588 -521 l45 -44 -62
-267 c-67 -285 -189 -807 -249 -1062 -44 -187 -45 -254 -2 -319 43 -64 97 -95
178 -99 83 -5 35 -30 679 353 261 155 541 321 622 369 l147 87 258 -157 c142
-87 431 -263 643 -392 212 -129 405 -244 429 -255 51 -22 128 -19 178 6 43 23
101 86 114 126 19 57 4 164 -64 456 -58 248 -113 490 -231 1009 l-34 148 37
32 c92 83 236 208 616 540 478 418 520 457 546 507 23 45 25 134 5 183 -21 51
-73 103 -119 120 -45 17 -882 102 -1556 158 l-34 3 -118 280 c-65 154 -139
327 -163 385 -106 250 -197 465 -255 602 -35 81 -75 165 -91 186 -58 80 -185
107 -279 59z"/>
</g>
</svg>
