<?xml version="1.0" standalone="no"?>
<!DOCTYPE svg PUBLIC "-//W3C//DTD SVG 20010904//EN"
 "http://www.w3.org/TR/2001/REC-SVG-20010904/DTD/svg10.dtd">
<svg version="1.0" xmlns="http://www.w3.org/2000/svg"
 width="509.000000pt" height="490.000000pt" viewBox="0 0 509.000000 490.000000"
 preserveAspectRatio="xMidYMid meet">

<g transform="translate(0.000000,490.000000) scale(0.100000,-0.100000)"
fill="#000000" stroke="none">
<path d="M2460 4849 c-49 -20 -91 -62 -119 -117 -16 -31 -95 -214 -176 -407
-81 -192 -204 -483 -272 -645 -69 -162 -130 -308 -137 -323 -6 -15 -20 -30
-31 -32 -11 -2 -110 -11 -220 -20 -175 -14 -1064 -94 -1230 -111 -33 -3 -77
-10 -97 -16 -86 -25 -151 -116 -151 -213 0 -99 20 -124 292 -363 395 -348 760
-670 847 -748 l81 -73 -69 -293 c-38 -161 -98 -417 -133 -568 -35 -151 -82
-351 -104 -445 -23 -93 -41 -194 -41 -223 0 -115 66 -195 182 -221 84 -19 78
-22 638 311 190 113 456 271 592 352 l247 147 643 -392 c354 -216 661 -400
683 -410 80 -37 176 -16 244 52 73 72 77 142 25 369 -60 263 -160 700 -232
1017 l-68 302 40 39 c38 36 375 332 896 785 118 104 228 207 245 230 23 33 30
55 33 103 2 34 -1 78 -7 97 -17 49 -74 112 -120 131 -25 9 -157 27 -353 46
-172 17 -403 39 -513 50 -110 10 -310 28 -445 40 -135 12 -254 23 -265 25 -13
3 -29 25 -46 67 -151 358 -499 1183 -530 1253 -53 122 -71 150 -120 182 -35
23 -55 28 -113 30 -39 2 -82 -2 -96 -8z m148 -83 c43 -22 57 -43 115 -181 134
-315 448 -1058 481 -1139 83 -199 84 -200 226 -210 47 -4 175 -15 285 -26 110
-11 391 -37 625 -60 565 -53 566 -53 597 -82 53 -49 67 -111 38 -172 -10 -20
-196 -190 -508 -463 -698 -611 -681 -596 -691 -625 -7 -21 1 -74 37 -230 26
-112 78 -342 117 -513 39 -171 95 -416 125 -546 30 -130 55 -254 55 -275 0
-69 -45 -119 -123 -138 -39 -9 -78 10 -322 159 -339 207 -375 228 -709 432
-176 107 -332 201 -347 209 -43 22 -76 17 -138 -20 -31 -18 -222 -132 -426
-253 -203 -121 -482 -286 -619 -368 -267 -159 -303 -173 -363 -141 -49 25 -83
72 -83 116 0 21 31 170 69 331 38 162 101 431 141 599 39 168 87 374 107 459
27 115 34 160 27 179 -9 26 -263 255 -1101 990 -45 40 -90 86 -98 102 -32 62
-9 147 50 186 28 19 227 39 1150 120 231 20 432 41 447 46 35 13 45 29 103
168 26 63 78 187 115 275 38 88 125 295 195 460 267 633 244 586 300 611 39
17 89 17 123 0z"/>
</g>
</svg>
